<?xml version="1.0" encoding="UTF-8"?>
<!DOCTYPE svg PUBLIC "-//W3C//DTD SVG 1.1//EN" "http://www.w3.org/Graphics/SVG/1.1/DTD/svg11.dtd">
<!-- Creator: CorelDRAW -->
<svg xmlns="http://www.w3.org/2000/svg" xml:space="preserve" width="512px" height="512px" version="1.1" style="shape-rendering:geometricPrecision; text-rendering:geometricPrecision; image-rendering:optimizeQuality; fill-rule:evenodd; clip-rule:evenodd"
viewBox="0 0 512 512"
 xmlns:xlink="http://www.w3.org/1999/xlink">
 <defs>
  <style type="text/css">
   
  </style>
 </defs>
 <g id="Layer_x0020_1">
  <metadata id="CorelCorpID_0Corel-Layer"/>
  <g id="_347896584">
   <g>
    <g id="_347896848">
     <path class="fil0" d="M504 276l-493 0c-3,0 -6,-3 -7,-7 0,-6 -1,-12 -1,-18 0,-55 27,-106 75,-144 48,-38 112,-59 180,-59 67,0 131,21 179,59 48,38 75,89 75,144 0,6 0,12 -1,18 -1,4 -4,7 -7,7zm-486 -14l479 0c1,-4 1,-8 1,-11 0,-104 -108,-189 -240,-189 -133,0 -241,85 -241,189 0,3 0,7 1,11z"/>
    </g>
    <g id="_347896824">
     <path class="fil0" d="M464 308c-4,0 -7,-3 -7,-7 0,-4 3,-7 7,-7 5,0 9,-4 9,-9 0,-5 -4,-9 -9,-9 -4,0 -7,-3 -7,-7 0,-4 3,-7 7,-7 12,0 23,10 23,23 0,13 -11,23 -23,23zm-412 0c-13,0 -24,-10 -24,-23 0,-13 11,-23 24,-23 4,0 7,3 7,7 0,4 -3,7 -7,7 -5,0 -10,4 -10,9 0,5 5,9 10,9 4,0 7,3 7,7 0,4 -3,7 -7,7z"/>
    </g>
    <g id="_347895432">
     <path class="fil0" d="M483 354c-1,0 -3,-1 -5,-2 -8,-9 -17,-13 -26,-13 -16,0 -29,12 -29,13 -1,1 -3,2 -5,2l0 0c-2,0 -4,-1 -5,-2 0,0 -13,-13 -29,-13 -9,0 -18,4 -26,13 -2,1 -3,2 -5,2 -2,0 -4,-1 -6,-2 -8,-9 -16,-13 -26,-13 -16,0 -29,12 -29,13 -1,1 -3,2 -5,2l0 0c-2,0 -4,-1 -5,-2 0,0 -13,-13 -29,-13 -9,0 -18,4 -26,13 -2,1 -3,2 -5,2 -2,0 -4,-1 -5,-2 -8,-9 -17,-13 -27,-13 -16,0 -29,12 -29,13 -1,1 -3,2 -5,2 0,0 0,0 0,0 -2,0 -3,-1 -5,-2 0,0 -13,-13 -29,-13 -9,0 -18,4 -26,13 -1,1 -3,2 -5,2 -2,0 -4,-1 -5,-2 -8,-9 -17,-13 -26,-13 -15,0 -26,10 -30,13 0,0 -2,2 -5,2 -3,0 -7,-3 -7,-7l0 -23c0,-17 12,-30 26,-30l421 0c14,0 25,13 25,30l0 23c0,3 -1,5 -4,6 -1,1 -2,1 -3,1zm-361 -29c15,0 28,7 34,12 7,-5 19,-12 34,-12 12,0 22,4 32,12 9,-8 20,-12 31,-12 15,0 28,7 34,12 7,-5 19,-12 34,-12 12,0 22,4 32,12 9,-8 20,-12 31,-12 15,0 27,7 34,12 7,-5 19,-12 34,-12 9,0 17,2 24,7l0 -8c0,-9 -5,-16 -11,-16l-421 0c-6,0 -12,7 -12,16l0 9c7,-4 17,-8 28,-8 11,0 21,4 31,12 9,-8 20,-12 31,-12z"/>
    </g>
    <g id="_347897064">
     <path class="fil0" d="M441 376c-4,0 -7,-4 -7,-7 0,-4 3,-7 7,-7 5,0 10,-6 10,-12l0 -18c0,-4 3,-7 7,-7 4,0 7,3 7,7l0 18c0,14 -11,26 -24,26zm-373 0c-13,0 -24,-12 -24,-26l0 -17c0,-4 3,-7 7,-7 4,0 7,3 7,7l0 17c0,6 5,12 10,12 4,0 7,3 7,7 0,3 -3,7 -7,7z"/>
    </g>
    <g id="_347897328">
     <path class="fil0" d="M460 408c-3,0 -7,-3 -7,-7 0,-4 4,-7 7,-7 5,0 10,-4 10,-9 0,-5 -5,-9 -10,-9l-412 0c-5,0 -9,4 -9,9 0,5 4,9 9,9 4,0 7,3 7,7 0,4 -3,7 -7,7 -12,0 -23,-10 -23,-23 0,-13 11,-23 23,-23l412 0c13,0 24,10 24,23 0,13 -11,23 -24,23z"/>
    </g>
    <g id="_347897304">
     <path class="fil0" d="M455 464l-401 0c-30,0 -54,-24 -54,-54l0 -9c0,-4 3,-7 7,-7l495 0c4,0 7,3 7,7l0 9c0,30 -24,54 -54,54zm-441 -56l0 2c0,22 18,40 40,40l401 0c22,0 40,-18 40,-40l0 -2 -481 0z"/>
    </g>
    <g id="_347897472">
     <path class="fil0" d="M278 131c-15,0 -27,-12 -27,-27 0,-15 12,-28 27,-28 16,0 28,13 28,28 0,15 -12,27 -28,27zm0 -41c-7,0 -13,6 -13,14 0,7 6,13 13,13 8,0 14,-6 14,-13 0,-8 -6,-14 -14,-14z"/>
    </g>
    <g id="_347896320">
     <path class="fil0" d="M417 247c-15,0 -28,-12 -28,-27 0,-15 13,-28 28,-28 15,0 27,13 27,28 0,15 -12,27 -27,27zm0 -41c-8,0 -14,6 -14,14 0,7 6,13 14,13 7,0 13,-6 13,-13 0,-8 -6,-14 -13,-14z"/>
    </g>
    <g id="_347898336">
     <path class="fil0" d="M98 215c-15,0 -27,-12 -27,-27 0,-16 12,-28 27,-28 16,0 28,12 28,28 0,15 -12,27 -28,27zm0 -41c-7,0 -13,6 -13,14 0,7 6,13 13,13 8,0 14,-6 14,-13 0,-8 -6,-14 -14,-14z"/>
    </g>
    <g id="_347898312">
     <path class="fil0" d="M185 232c-15,0 -27,-12 -27,-27 0,-15 12,-27 27,-27 15,0 28,12 28,27 0,15 -13,27 -28,27zm0 -40c-7,0 -13,6 -13,13 0,7 6,13 13,13 8,0 14,-6 14,-13 0,-7 -6,-13 -14,-13z"/>
    </g>
    <g id="_347898288">
     <path class="fil0" d="M297 243c-15,0 -28,-12 -28,-27 0,-15 13,-28 28,-28 15,0 27,13 27,28 0,15 -12,27 -27,27zm0 -41c-8,0 -14,6 -14,14 0,7 6,13 14,13 7,0 13,-6 13,-13 0,-8 -6,-14 -13,-14z"/>
    </g>
    <g id="_347898192">
     <path class="fil0" d="M370 192c-15,0 -27,-12 -27,-27 0,-16 12,-28 27,-28 15,0 28,12 28,28 0,15 -13,27 -28,27zm0 -41c-7,0 -13,6 -13,14 0,7 6,13 13,13 8,0 14,-6 14,-13 0,-8 -6,-14 -14,-14z"/>
    </g>
    <g id="_347898120">
     <path class="fil0" d="M174 159c-15,0 -27,-12 -27,-27 0,-15 12,-28 27,-28 15,0 28,13 28,28 0,15 -13,27 -28,27zm0 -41c-7,0 -13,6 -13,14 0,7 6,13 13,13 8,0 14,-6 14,-13 0,-8 -6,-14 -14,-14z"/>
    </g>
   </g>
  </g>
 </g>
</svg>
