<?xml version="1.0" encoding="UTF-8"?>
<!DOCTYPE svg PUBLIC "-//W3C//DTD SVG 1.1//EN" "http://www.w3.org/Graphics/SVG/1.1/DTD/svg11.dtd">
<!-- Creator: CorelDRAW -->
<svg xmlns="http://www.w3.org/2000/svg" xml:space="preserve" width="512px" height="512px" version="1.1" style="shape-rendering:geometricPrecision; text-rendering:geometricPrecision; image-rendering:optimizeQuality; fill-rule:evenodd; clip-rule:evenodd"
viewBox="0 0 512 512"
 xmlns:xlink="http://www.w3.org/1999/xlink">
 <defs>
  <style type="text/css">
  </style>
 </defs>
 <g id="Layer_x0020_1">
  <metadata id="CorelCorpID_0Corel-Layer"/>
  <g id="_379321872">
   <g>
    <g id="_379330608">
     <path class="fil0" d="M204 481l-165 0c-10,0 -18,-8 -18,-18l-11 -237c0,-1 1,-3 2,-5 2,-1 3,-2 5,-2l209 0c2,0 4,1 5,2 1,2 2,4 2,5l-10 237c-1,10 -9,18 -19,18zm-179 -248l10 229c0,3 2,5 4,5l165 0c2,0 4,-2 5,-5l10 -229 -194 0 0 0z"/>
    </g>
    <g id="_379321152">
     <path class="fil0" d="M505 350l-284 0c-4,0 -7,-4 -7,-7 0,-4 3,-7 7,-7l276 0c-2,-21 -16,-40 -39,-54 -27,-18 -63,-27 -101,-27 -55,0 -106,20 -129,51 -2,3 -6,4 -9,2 -4,-3 -4,-7 -2,-10 13,-17 32,-31 57,-42 25,-10 53,-15 83,-15 41,0 79,10 108,29 30,19 47,45 47,73 0,3 -3,7 -7,7z"/>
    </g>
    <g id="_379321104">
     <path class="fil0" d="M476 481l-239 0c-10,0 -20,-5 -27,-13 -2,-3 -2,-7 1,-10 3,-2 7,-2 10,1 4,5 10,8 16,8l239 0c12,0 22,-10 22,-22l0 -21 -280 0c-4,0 -7,-3 -7,-7 0,-4 3,-7 7,-7l287 0c4,0 7,3 7,7l0 28c0,20 -16,36 -36,36z"/>
    </g>
    <g id="_379321320">
     <path class="fil0" d="M221 192c0,0 0,0 0,0l-198 0c-2,0 -4,-1 -5,-2 -2,-2 -2,-3 -2,-5 0,-46 37,-83 82,-83l48 0c45,0 82,37 82,82 0,0 0,1 0,1 0,4 -3,7 -7,7zm-191 -14l184 0c-4,-35 -33,-62 -68,-62l-48 0c-35,0 -64,27 -68,62z"/>
    </g>
    <g id="_379320384">
     <path class="fil0" d="M146 289c-3,0 -6,-3 -7,-6l-11 -55c-1,-4 2,-8 6,-9 3,0 7,2 8,6l11 55c1,4 -2,8 -6,9 0,0 -1,0 -1,0zm-19 -97c-3,0 -6,-3 -7,-6l-29 -147c-1,-4 2,-8 5,-8 4,-1 8,1 9,5l29 147c0,4 -2,8 -6,9 0,0 -1,0 -1,0z"/>
    </g>
    <g id="_379321824">
     <path class="fil0" d="M224 289l-204 0c-4,0 -7,-3 -7,-7 0,-4 3,-7 7,-7l204 0c3,0 7,3 7,7 0,4 -4,7 -7,7z"/>
    </g>
    <g id="_379319952">
     <path class="fil0" d="M227 233l-211 0c-9,0 -16,-7 -16,-16l0 -23c0,-9 7,-16 16,-16l211 0c9,0 16,7 16,16l0 23c0,9 -7,16 -16,16zm-211 -41c-1,0 -2,1 -2,2l0 23c0,1 1,2 2,2l211 0c1,0 2,-1 2,-2l0 -23c0,-1 -1,-2 -2,-2l-211 0z"/>
    </g>
    <g id="_379322184">
     <path class="fil0" d="M505 387l-286 0c-4,0 -7,-3 -7,-7 0,-4 3,-7 7,-7l286 0c4,0 7,3 7,7 0,4 -3,7 -7,7z"/>
    </g>
    <g id="_379322376">
     <path class="fil0" d="M122 438c-33,0 -60,-27 -60,-60 0,-33 27,-59 60,-59 32,0 59,26 59,59 0,33 -27,60 -59,60zm0 -105c-25,0 -46,20 -46,45 0,25 21,46 46,46 25,0 45,-21 45,-46 0,-25 -20,-45 -45,-45z"/>
    </g>
    <g id="_379322880">
     <path class="fil0" d="M122 405c-15,0 -27,-12 -27,-27 0,-15 12,-27 27,-27 15,0 27,12 27,27 0,15 -12,27 -27,27zm0 -40c-8,0 -13,6 -13,13 0,7 5,13 13,13 7,0 13,-6 13,-13 0,-7 -6,-13 -13,-13z"/>
    </g>
    <g id="_379322208">
     <path class="fil0" d="M505 387c-1,0 -3,-1 -4,-1l-53 -35 -53 35c-2,1 -5,1 -8,0l-53 -35 -53 35c-2,1 -5,1 -7,0l-57 -38c-3,-2 -4,-6 -2,-9 2,-4 6,-4 10,-2l53 34 53 -34c2,-2 5,-2 7,0l53 34 53 -34c3,-2 6,-2 8,0l57 37c3,2 4,6 2,10 -2,2 -4,3 -6,3z"/>
    </g>
    <g id="_379322736">
     <path class="fil0" d="M459 405l-240 0c-4,0 -7,-3 -7,-7 0,-4 3,-7 7,-7l240 0c4,0 7,3 7,7 0,4 -3,7 -7,7z"/>
    </g>
   </g>
  </g>
 </g>
</svg>
