<?xml version="1.0" encoding="UTF-8" standalone="no"?> <svg xmlns="http://www.w3.org/2000/svg" viewBox="0 0 64 64"><g id="Layer_43" data-name="Layer 43"><path d="M59.58,6.47a2.83,2.83,0,0,0-3.84,1l-4.37,5.93a10.24,10.24,0,0,0-8.56.17c-8.39-10.12-23.6.77-16.76,12h-.68a1,1,0,0,0-1,1A16.92,16.92,0,0,0,38.73,43.3v7.75a1.56,1.56,0,0,1-1.55,1.55,5.59,5.59,0,0,0-4.54,2.32l-.72,1H30.27a1,1,0,0,0,0,2H52.45a1,1,0,0,0,0-2H50.8l-.72-1a5.63,5.63,0,0,0-4.54-2.32A1.56,1.56,0,0,1,44,51.05V43.3A16.92,16.92,0,0,0,58.35,26.53a1,1,0,0,0-1.14-1A10.32,10.32,0,0,0,55.78,17l4.79-6.59A2.85,2.85,0,0,0,59.58,6.47ZM26.37,19.89a8.32,8.32,0,0,1,8.31-8.32c7.13-.12,11,8.8,6.11,14H28.58A8.25,8.25,0,0,1,26.37,19.89ZM42.89,41.45a1.06,1.06,0,0,0-.9,1v8.61a3.55,3.55,0,0,0,3.55,3.55,3.62,3.62,0,0,1,2.79,1.32H34.39a3.62,3.62,0,0,1,2.79-1.32,3.55,3.55,0,0,0,3.55-3.55V42.44a1.06,1.06,0,0,0-.41-.78C32.72,40.54,27,35.36,26.4,27.53H56.32A14.94,14.94,0,0,1,42.89,41.45Zm.44-15.92a10.29,10.29,0,0,0,.55-10.29c6.49-3,13.65,3.55,11.25,10.29ZM58.91,9.31l-4.46,6.14a10.61,10.61,0,0,0-1.32-1.09l4.25-5.77.06-.09A.84.84,0,0,1,58.91,9.31Z"/><path d="M24.67,37.57a6.29,6.29,0,0,0-3.07-6.8c-.45-8.11-12.14-8.1-12.59,0a6.29,6.29,0,0,0-3.07,6.8,4.52,4.52,0,0,0,.67,8.65l.95,9.2a2.78,2.78,0,0,0,2.77,2.5h10a2.78,2.78,0,0,0,2.76-2.5l.95-9.2A4.52,4.52,0,0,0,24.67,37.57ZM21.06,55.22c-.09.87-1.08.69-1.7.7l.71-4.15a1,1,0,0,0-.81-1.15,1,1,0,0,0-1.16.81l-.77,4.49h-1v-7a1,1,0,1,0-2,0v7h-1l-.77-4.49a1,1,0,0,0-2,.34l.71,4.15c-.62,0-1.6.17-1.7-.7l-.89-8.61a4.45,4.45,0,0,0,2.75,1,4.19,4.19,0,0,0,2.49-.78,2.39,2.39,0,0,1,2.81,0,4.16,4.16,0,0,0,2.48.78,4.46,4.46,0,0,0,2.76-1Zm2-10.91c-2.09-.05-2.19,1.15-3.89,1.25-1.69-.1-1.8-1.3-3.89-1.25a4.09,4.09,0,0,0-2.48.78,2.39,2.39,0,0,1-2.81,0,4.09,4.09,0,0,0-2.48-.78A2.52,2.52,0,1,1,10,41.54a1,1,0,0,0,2-.19,4.49,4.49,0,0,0-4.08-4c-1.1-3.83,3.59-7,6.75-4.51a4.34,4.34,0,0,1,0,6.88,1,1,0,0,0,1.21,1.59C21.11,37.36,17.52,29,11.11,30c1.51-5.43,8.91-4,8.55,1.68a1.13,1.13,0,0,0,.54.58,4.28,4.28,0,0,1,2.47,5,4.48,4.48,0,0,0-4.08,4,1,1,0,0,0,.89,1.09,1,1,0,0,0,1.1-.9,2.52,2.52,0,1,1,2.5,2.77Z"/></g></svg>