<?xml version="1.0" encoding="UTF-8" standalone="no"?> <svg xmlns="http://www.w3.org/2000/svg" viewBox="0 0 512 512"><title>Cold_drink</title><g id="Cold_drink"><path d="M376.3066,116.2578H263.998V96.25l74.5977-74.5937a7.9991,7.9991,0,0,0-11.3125-11.3125L250.3418,87.2813a7.9941,7.9941,0,0,0-2.3438,5.6562v23.32H135.6934a7.9979,7.9979,0,0,0-8,8v40a7.9979,7.9979,0,0,0,8,8h8.5214l27.002,324.4063A7.998,7.998,0,0,0,179.19,504h153.621a7.998,7.998,0,0,0,7.9727-7.3359l27.002-324.4063h8.5214a7.9979,7.9979,0,0,0,8-8v-40A7.9979,7.9979,0,0,0,376.3066,116.2578Zm-44.7,297.7461L172.76,322.2969l-7.0352-84.5176,172.2715,99.4648Zm36.7-257.7461H143.6934v-24H368.3066Z"/></g></svg>