<?xml version="1.0" encoding="UTF-8" standalone="no"?> <svg xmlns="http://www.w3.org/2000/svg" viewBox="0 0 64 64"><g id="Layer_37" data-name="Layer 37"><path d="M58.28,40.57a5.49,5.49,0,0,0,.33-8.27,5.49,5.49,0,0,0-5.28-8.48A5.38,5.38,0,0,0,51,20.34a6.35,6.35,0,0,0-7.21-5.48c-1.35-5.34-8.83-6.3-11.55-1.58C27.63,10.46,21.58,15,22.9,20.15a5.42,5.42,0,0,0-2.81.55,5.76,5.76,0,0,0-10.3,1.9A5.75,5.75,0,0,0,4.42,32a5.73,5.73,0,0,0,2,7.12A28.83,28.83,0,0,0,3,52.81a1,1,0,0,0,1,1H60a1,1,0,0,0,1-1A28.79,28.79,0,0,0,58.28,40.57ZM51.44,25a3.49,3.49,0,0,1-.65,1.88,1,1,0,0,0,.82,1.58c1.16-.12,1.49-1.69,1.74-2.63a3.47,3.47,0,0,1,3.13,5.89,1,1,0,0,0,.19,1.59,3.47,3.47,0,0,1,.67,5.39A29.09,29.09,0,0,0,40.59,25.11a3.57,3.57,0,0,1,2.83-.67,1,1,0,0,0,1.14-.64C45.86,20.08,51.57,21,51.44,25ZM25,17.41a4.34,4.34,0,0,1,8.28.2,1,1,0,0,0,1.23.7c1.66-.65,0-2.87-.66-3.73A4.33,4.33,0,0,1,42,16.18a1,1,0,0,0,1.34.86,4.33,4.33,0,0,1,5.42,2.46A5.6,5.6,0,0,0,43,22.38a5.62,5.62,0,0,0-4.65,2.14,27.86,27.86,0,0,0-10.3-.41,5.74,5.74,0,0,0-2.77-3.3A4.25,4.25,0,0,1,25,17.41ZM5.9,34.39a3.62,3.62,0,0,1,.6-2,1,1,0,0,0-.2-1.32,3.73,3.73,0,1,1,5.54-4.9,1,1,0,0,0,1.38.28c1.3-1.08-.63-2.52-1.53-3.12a3.74,3.74,0,0,1,7.11-.82,1,1,0,0,0,1.54.39A3.75,3.75,0,0,1,26,24.45a28.75,28.75,0,0,0-18.59,13A3.69,3.69,0,0,1,5.9,34.39ZM5,51.81A27.1,27.1,0,0,1,20.11,28.56C37.19,19.81,58.62,32.69,59,51.81Z"/><path d="M17,35.51a1.29,1.29,0,0,0,0,2.58A1.29,1.29,0,0,0,17,35.51Z"/><path d="M26.67,36.41a1.29,1.29,0,0,0,0,2.57A1.29,1.29,0,0,0,26.67,36.41Z"/><path d="M16,44.39A1.29,1.29,0,0,0,16,47,1.29,1.29,0,0,0,16,44.39Z"/><path d="M30.5,45.17a1.29,1.29,0,0,0,0,2.57A1.29,1.29,0,0,0,30.5,45.17Z"/><path d="M21.33,41a1.29,1.29,0,0,0,0,2.57A1.29,1.29,0,0,0,21.33,41Z"/><path d="M42.25,32.72a1.29,1.29,0,0,0,0,2.57A1.29,1.29,0,0,0,42.25,32.72Z"/><path d="M46.08,41.47a1.29,1.29,0,0,0,0,2.57A1.29,1.29,0,0,0,46.08,41.47Z"/><path d="M36.92,37.32a1.29,1.29,0,0,0,0,2.57A1.29,1.29,0,0,0,36.92,37.32Z"/></g></svg>